<svg width="600" height="500" viewBox="0 0 600 500" fill="none" xmlns="http://www.w3.org/2000/svg">
<path d="M30.0089 469.298C24.3701 469.298 19.2721 468.336 14.7148 466.412C10.2347 464.489 6.68151 461.719 4.05525 458.102C1.42899 454.486 0.0772428 450.215 0 445.29H17.3797C17.6114 448.599 18.77 451.215 20.8556 453.139C23.0184 455.063 25.9536 456.025 29.6613 456.025C33.4462 456.025 36.42 455.14 38.5828 453.37C40.7456 451.523 41.827 449.138 41.827 446.214C41.827 443.828 41.0932 441.866 39.6256 440.327C38.158 438.788 36.3042 437.596 34.0641 436.749C31.9013 435.826 28.8888 434.826 25.0267 433.748C19.7742 432.209 15.4872 430.709 12.1658 429.247C8.92156 427.708 6.10219 425.438 3.70766 422.437C1.39037 419.359 0.231728 415.281 0.231728 410.202C0.231728 405.432 1.42899 401.277 3.82352 397.737C6.21805 394.197 9.57812 391.504 13.9037 389.658C18.2293 387.734 23.1729 386.772 28.7344 386.772C37.0766 386.772 43.8354 388.811 49.0106 392.889C54.2631 396.891 57.1598 402.508 57.7005 409.741H39.8573C39.7029 406.971 38.5056 404.701 36.2655 402.931C34.1027 401.084 31.2061 400.161 27.5757 400.161C24.4088 400.161 21.8597 400.969 19.9287 402.585C18.0748 404.201 17.1479 406.547 17.1479 409.625C17.1479 411.78 17.8431 413.588 19.2335 415.05C20.7011 416.435 22.4777 417.589 24.5632 418.513C26.726 419.359 29.7385 420.36 33.6007 421.514C38.8532 423.053 43.1402 424.592 46.4616 426.131C49.7831 427.67 52.641 429.978 55.0356 433.056C57.4301 436.134 58.6274 440.173 58.6274 445.175C58.6274 449.484 57.5073 453.485 55.2673 457.179C53.0273 460.872 49.7444 463.835 45.4188 466.066C41.0932 468.221 35.9566 469.298 30.0089 469.298Z" fill="#002652"/>
<path d="M80.9168 396.929C78.0588 396.929 75.6643 396.044 73.7332 394.274C71.8794 392.428 70.9524 390.158 70.9524 387.465C70.9524 384.771 71.8794 382.54 73.7332 380.77C75.6643 378.923 78.0588 378 80.9168 378C83.7748 378 86.1307 378.923 87.9845 380.77C89.9156 382.54 90.8811 384.771 90.8811 387.465C90.8811 390.158 89.9156 392.428 87.9845 394.274C86.1307 396.044 83.7748 396.929 80.9168 396.929ZM88.9114 404.547V468.49H72.6904V404.547H88.9114Z" fill="#002652"/>
<path d="M130.08 403.508C134.869 403.508 139.079 404.47 142.71 406.394C146.34 408.24 149.198 410.664 151.284 413.665V404.547H167.62V468.952C167.62 474.877 166.423 480.148 164.029 484.764C161.634 489.458 158.042 493.152 153.253 495.845C148.464 498.615 142.671 500 135.874 500C126.759 500 119.266 497.884 113.396 493.652C107.603 489.42 104.32 483.649 103.547 476.339H119.653C120.502 479.263 122.317 481.571 125.098 483.264C127.956 485.034 131.394 485.919 135.41 485.919C140.122 485.919 143.945 484.495 146.881 481.648C149.816 478.878 151.284 474.646 151.284 468.952V459.026C149.198 462.026 146.301 464.527 142.594 466.528C138.963 468.529 134.792 469.529 130.08 469.529C124.673 469.529 119.73 468.144 115.25 465.374C110.77 462.604 107.216 458.718 104.59 453.716C102.041 448.638 100.767 442.828 100.767 436.288C100.767 429.824 102.041 424.091 104.59 419.09C107.216 414.088 110.731 410.241 115.134 407.548C119.614 404.855 124.596 403.508 130.08 403.508ZM151.284 436.518C151.284 432.594 150.511 429.247 148.966 426.477C147.421 423.63 145.336 421.475 142.71 420.013C140.083 418.474 137.264 417.705 134.251 417.705C131.239 417.705 128.458 418.436 125.909 419.898C123.36 421.36 121.275 423.514 119.653 426.361C118.108 429.132 117.335 432.44 117.335 436.288C117.335 440.135 118.108 443.521 119.653 446.445C121.275 449.292 123.36 451.485 125.909 453.024C128.536 454.563 131.316 455.332 134.251 455.332C137.264 455.332 140.083 454.601 142.71 453.139C145.336 451.6 147.421 449.446 148.966 446.675C150.511 443.828 151.284 440.443 151.284 436.518Z" fill="#002652"/>
<path d="M219.033 403.623C226.68 403.623 232.86 406.047 237.572 410.895C242.284 415.666 244.639 422.36 244.639 430.978V468.49H228.418V433.171C228.418 428.093 227.144 424.207 224.595 421.514C222.046 418.744 218.57 417.359 214.167 417.359C209.687 417.359 206.134 418.744 203.508 421.514C200.959 424.207 199.684 428.093 199.684 433.171V468.49H183.463V404.547H199.684V412.511C201.847 409.741 204.589 407.586 207.91 406.047C211.309 404.431 215.017 403.623 219.033 403.623Z" fill="#002652"/>
<path d="M255.894 436.288C255.894 429.824 257.168 424.091 259.717 419.09C262.343 414.088 265.858 410.241 270.261 407.548C274.741 404.855 279.723 403.508 285.207 403.508C289.996 403.508 294.168 404.47 297.721 406.394C301.351 408.317 304.248 410.741 306.411 413.665V404.547H322.747V468.49H306.411V459.141C304.325 462.142 301.428 464.643 297.721 466.643C294.09 468.567 289.881 469.529 285.091 469.529C279.684 469.529 274.741 468.144 270.261 465.374C265.858 462.604 262.343 458.718 259.717 453.716C257.168 448.638 255.894 442.828 255.894 436.288ZM306.411 436.518C306.411 432.594 305.638 429.247 304.093 426.477C302.548 423.63 300.463 421.475 297.837 420.013C295.21 418.474 292.391 417.705 289.378 417.705C286.366 417.705 283.585 418.436 281.036 419.898C278.487 421.36 276.402 423.514 274.78 426.361C273.235 429.132 272.462 432.44 272.462 436.288C272.462 440.135 273.235 443.521 274.78 446.445C276.402 449.292 278.487 451.485 281.036 453.024C283.663 454.563 286.443 455.332 289.378 455.332C292.391 455.332 295.21 454.601 297.837 453.139C300.463 451.6 302.548 449.446 304.093 446.675C305.638 443.828 306.411 440.443 306.411 436.518Z" fill="#002652"/>
<path d="M354.811 383.079V468.49H338.59V383.079H354.811Z" fill="#002652"/>
<path d="M429.812 412.857C429.812 417.166 428.77 421.206 426.684 424.976C424.676 428.747 421.47 431.786 417.067 434.095C412.742 436.403 407.258 437.557 400.615 437.557H387.058V468.49H370.837V387.926H400.615C406.871 387.926 412.201 389.003 416.604 391.158C421.007 393.313 424.29 396.275 426.452 400.045C428.692 403.816 429.812 408.086 429.812 412.857ZM399.919 424.515C404.4 424.515 407.721 423.514 409.884 421.514C412.047 419.436 413.128 416.551 413.128 412.857C413.128 405.009 408.725 401.084 399.919 401.084H387.058V424.515H399.919Z" fill="#002652"/>
<path d="M457.55 383.079V468.49H441.329V383.079H457.55Z" fill="#002652"/>
<path d="M534.174 404.547V468.49H517.837V460.411C515.751 463.181 513.009 465.374 509.61 466.99C506.289 468.529 502.659 469.298 498.719 469.298C493.698 469.298 489.257 468.259 485.395 466.182C481.533 464.027 478.482 460.911 476.241 456.833C474.079 452.677 472.997 447.753 472.997 442.059V404.547H489.218V439.75C489.218 444.829 490.493 448.753 493.042 451.523C495.591 454.216 499.067 455.563 503.47 455.563C507.95 455.563 511.464 454.216 514.013 451.523C516.562 448.753 517.837 444.829 517.837 439.75V404.547H534.174Z" fill="#002652"/>
<path d="M574.742 469.529C569.489 469.529 564.777 468.605 560.606 466.759C556.435 464.835 553.114 462.257 550.642 459.026C548.247 455.794 546.934 452.216 546.702 448.291H563.039C563.348 450.754 564.545 452.793 566.631 454.409C568.794 456.025 571.459 456.833 574.626 456.833C577.715 456.833 580.11 456.217 581.809 454.986C583.586 453.755 584.474 452.177 584.474 450.254C584.474 448.176 583.393 446.637 581.23 445.637C579.144 444.559 575.784 443.405 571.15 442.174C566.361 441.02 562.421 439.827 559.332 438.596C556.319 437.365 553.693 435.48 551.453 432.94C549.29 430.401 548.209 426.977 548.209 422.668C548.209 419.128 549.213 415.897 551.221 412.973C553.307 410.049 556.242 407.74 560.027 406.047C563.889 404.354 568.408 403.508 573.583 403.508C581.23 403.508 587.332 405.432 591.889 409.279C596.447 413.05 598.957 418.167 599.421 424.63H583.895C583.663 422.091 582.582 420.09 580.651 418.628C578.797 417.089 576.286 416.32 573.119 416.32C570.184 416.32 567.906 416.858 566.283 417.936C564.739 419.013 563.966 420.513 563.966 422.437C563.966 424.592 565.048 426.246 567.21 427.4C569.373 428.477 572.733 429.593 577.291 430.747C581.925 431.902 585.749 433.094 588.761 434.325C591.774 435.557 594.361 437.48 596.524 440.097C598.764 442.636 599.923 446.021 600 450.254C600 453.947 598.957 457.256 596.872 460.18C594.863 463.104 591.928 465.412 588.066 467.105C584.281 468.721 579.84 469.529 574.742 469.529Z" fill="#002652"/>
<path d="M96.2201 117H507.555C508.046 117 508.178 117.716 507.71 117.862C450.552 135.692 373.49 216.318 300.899 273.362C300.899 273.362 255.303 313.117 195.952 313C145.775 312.902 105.753 284.296 94.9098 275.747C93.0182 274.256 92 271.99 92 269.592L92 121.188C92 118.875 93.8894 117 96.2201 117Z" fill="url(#paint0_linear_44_594)"/>
<path d="M503.779 196H92.4449C91.954 196 91.8221 195.284 92.2903 195.138C149.448 177.308 226.51 96.6824 299.101 39.6377C299.101 39.6377 344.696 -0.116621 404.048 0.000257213C454.225 0.0990701 494.247 28.704 505.09 37.2525C506.982 38.744 508 41.0103 508 43.4077V191.812C508 194.125 506.11 196 503.779 196Z" fill="url(#paint1_linear_44_594)"/>
<path fill-rule="evenodd" clip-rule="evenodd" d="M508 117.467C507.999 117.636 507.908 117.8 507.71 117.862C474.375 128.261 434.27 160.018 392.23 196H92.4449C92.1645 196 92.0012 195.766 92 195.539C92 195.537 92 195.535 92 195.534C92.0009 195.365 92.0915 195.2 92.2903 195.138C125.625 184.739 165.73 152.982 207.77 117H507.555C507.835 117 507.999 117.233 508 117.461C508 117.463 508 117.465 508 117.467Z" fill="url(#paint2_linear_44_594)"/>
<defs>
<linearGradient id="paint0_linear_44_594" x1="92" y1="313.026" x2="504.15" y2="109.24" gradientUnits="userSpaceOnUse">
<stop stop-color="#0085FF"/>
<stop offset="1" stop-color="#00FFF1"/>
</linearGradient>
<linearGradient id="paint1_linear_44_594" x1="508" y1="0" x2="155.681" y2="276.997" gradientUnits="userSpaceOnUse">
<stop stop-color="#00FFD1"/>
<stop offset="1" stop-color="#0083FD"/>
</linearGradient>
<linearGradient id="paint2_linear_44_594" x1="508" y1="117.417" x2="99.3744" y2="223.886" gradientUnits="userSpaceOnUse">
<stop stop-color="#00FFE3"/>
<stop offset="1" stop-color="#01AAFC"/>
</linearGradient>
</defs>
</svg>
